<svg width="54" height="54" viewBox="0 0 54 54" fill="none" xmlns="http://www.w3.org/2000/svg">
<path d="M53.0019 26.6179C53.0657 11.99 41.2457 0.0663005 26.6178 0.00245356C11.99 -0.0613934 0.0662457 11.7587 0.00239874 26.3865C-0.0614482 41.0144 11.7586 52.9381 26.3865 53.002C41.0143 53.0658 52.938 41.2457 53.0019 26.6179ZM5.30235 26.4097C5.35347 14.6968 14.8818 5.25128 26.5947 5.3024C38.3076 5.35353 47.7531 14.8818 47.7019 26.5947C47.6508 38.3076 38.1225 47.7531 26.4096 47.702C14.6967 47.6509 5.25122 38.1226 5.30235 26.4097ZM37.102 26.5485L26.4559 37.1021L22.7357 33.3493L26.9411 29.1541L15.8907 29.1059L15.9138 23.806L26.9642 23.8542L22.7691 19.6223L26.5484 15.9023L37.102 26.5485Z" fill="black"/>
</svg>
